<svg viewBox="0 0 105 105" fill="none" preserveAspectRatio="xMidYMid meet" class="r-1ghhsy9" style="height: 20px; vertical-align: middle; width: 20px;"><path d="M27.204 34.466c5.379 0 9.74-4.365 9.74-9.75s-4.361-9.75-9.74-9.75c-5.378 0-9.738 4.365-9.738 9.75s4.36 9.75 9.738 9.75z" fill="#3884FF"></path><path d="M26.739 89.5c5.378 0 9.738-4.365 9.738-9.75S32.117 70 26.74 70C21.36 70 17 74.365 17 79.75s4.36 9.75 9.739 9.75zM82.261 34.466c5.379 0 9.739-4.365 9.739-9.75s-4.36-9.75-9.739-9.75c-5.378 0-9.738 4.365-9.738 9.75s4.36 9.75 9.738 9.75z" fill="#E44F89"></path><path d="M82.261 89.602c5.379 0 9.739-4.365 9.739-9.75s-4.36-9.75-9.739-9.75c-5.378 0-9.738 4.365-9.738 9.75s4.36 9.75 9.738 9.75z" fill="#3884FF"></path><path d="M54.739 10.727a4.353 4.353 0 01-3.148-1.284 4.398 4.398 0 010-6.204 4.546 4.546 0 016.193 0 4.386 4.386 0 010 6.204 4.307 4.307 0 01-3.045 1.284zm0-6.5a2.125 2.125 0 00-1.489 3.614 2.159 2.159 0 002.977 0 2.125 2.125 0 00-1.488-3.568v-.046zM100.614 56.67a4.33 4.33 0 01-3.091-1.26 4.398 4.398 0 010-6.205 4.477 4.477 0 016.193 0 4.4 4.4 0 010 6.204 4.355 4.355 0 01-3.102 1.261zm0-6.5a2.113 2.113 0 100 4.228 2.097 2.097 0 002.114-2.108 2.127 2.127 0 00-1.3-1.96 2.07 2.07 0 00-.814-.16zM4.372 56.67a4.328 4.328 0 01-3.091-1.26 4.398 4.398 0 010-6.205 4.477 4.477 0 016.193 0 4.398 4.398 0 010 6.204 4.352 4.352 0 01-3.102 1.261zm0-6.5a2.114 2.114 0 000 4.228 2.1 2.1 0 001.5-.614 2.125 2.125 0 00-.686-3.455 2.068 2.068 0 00-.814-.159zM54.739 102.614a4.365 4.365 0 01-3.148-1.284 4.4 4.4 0 010-6.148 4.477 4.477 0 016.193 0 4.386 4.386 0 010 6.204 4.305 4.305 0 01-3.045 1.228zm0-6.5a2.081 2.081 0 00-1.489.613 2.101 2.101 0 000 2.989 2.117 2.117 0 001.52.714 2.106 2.106 0 001.562-.62 2.113 2.113 0 00-.105-3.083 2.102 2.102 0 00-1.488-.613z" fill="#E44F89"></path><path opacity="0.3" d="M67.977 18.58c-.14 0-.28-.026-.409-.08a35.98 35.98 0 00-8.113-2.034 1.146 1.146 0 01.295-2.273 38.708 38.708 0 018.625 2.17 1.136 1.136 0 01-.398 2.205v.012zm-26.261-.08a1.136 1.136 0 01-1.068-.75 1.138 1.138 0 01.716-1.454 38.417 38.417 0 019.09-2.171 1.142 1.142 0 11.25 2.273 36.178 36.178 0 00-8.545 2.034.954.954 0 01-.443.068zM57.42 90.636a1.137 1.137 0 01-.08-2.272 35.9 35.9 0 008.626-1.682 1.136 1.136 0 01.705 2.159 38.64 38.64 0 01-9.171 1.795h-.08zm-9.09-.454h-.148a38.638 38.638 0 01-8.955-2.705 1.137 1.137 0 01.92-2.08 35.832 35.832 0 008.421 2.546 1.14 1.14 0 11-.193 2.273l-.045-.034zM89.977 65.568c-.124.02-.25.02-.375 0a1.137 1.137 0 01-.704-1.443 36.362 36.362 0 001.83-8.602 1.141 1.141 0 112.272.193 38.044 38.044 0 01-1.943 9.148 1.136 1.136 0 01-1.08.704zm1.58-17.932a1.136 1.136 0 01-1.136-.966 35.844 35.844 0 00-2.41-8.443 1.136 1.136 0 012.091-.886 38.54 38.54 0 012.58 8.977 1.135 1.135 0 01-.955 1.296l-.17.022zM15.027 65.568c.124.02.25.02.375 0a1.137 1.137 0 00.704-1.443 36.362 36.362 0 01-1.83-8.602 1.141 1.141 0 10-2.272.193c.27 3.117.922 6.19 1.943 9.148a1.136 1.136 0 001.08.704zm-1.58-17.932a1.136 1.136 0 001.137-.966 35.844 35.844 0 012.409-8.443 1.137 1.137 0 00-2.091-.886 38.54 38.54 0 00-2.58 8.977 1.135 1.135 0 00.955 1.296l.17.022z" fill="#1351AA"></path></svg>